<svg width="375" height="463" viewBox="0 0 375 463" fill="none" xmlns="http://www.w3.org/2000/svg">
<g filter="url(#filter0_dddddd_4305_39134)">
<path fill-rule="evenodd" clip-rule="evenodd" d="M208.584 12.9199L208.589 16.4181C221.444 17.4256 229.935 26.1852 229.949 39.6185L230 78.9388C230.018 93.5848 220.817 102.596 206.068 102.62L170.042 102.666C155.386 102.685 146.069 93.4589 146.051 78.7709L146 39.9124C145.982 26.3905 154.174 17.6542 167.029 16.4741L167.024 12.9759C167.02 10.9236 168.54 9.37966 170.567 9.37966C172.595 9.375 174.115 10.9142 174.12 12.9665L174.124 16.2316L201.493 16.1942L201.489 12.9292C201.484 10.8769 203.004 9.33768 205.032 9.33302C207.013 9.32835 208.58 10.8676 208.584 12.9199ZM153.1 41.3537L222.858 41.2605V39.6279C222.66 29.5996 217.629 24.3383 208.598 23.5547L208.603 27.1462C208.603 29.1519 207.041 30.7424 205.059 30.7424C203.032 30.7471 201.507 29.1612 201.507 27.1555L201.502 23.3774L174.134 23.4147L174.138 27.1882C174.138 29.1985 172.622 30.7844 170.595 30.7844C168.568 30.789 167.043 29.2078 167.043 27.1975L167.038 23.606C158.053 24.5062 153.082 29.7862 153.096 39.9031L153.1 41.3537ZM203.119 62.553V62.6043C203.165 64.7499 204.916 66.3777 207.04 66.3311C209.113 66.2798 210.767 64.5027 210.721 62.3571C210.625 60.3048 208.961 58.6303 206.893 58.6349C204.773 58.6816 203.114 60.4074 203.119 62.553ZM206.926 83.4959C204.806 83.4492 203.097 81.6814 203.092 79.5359C203.046 77.3903 204.746 75.6132 206.866 75.5619H206.912C209.077 75.5619 210.833 77.3296 210.833 79.5219C210.838 81.7141 209.087 83.4912 206.926 83.4959ZM184.137 62.628C184.23 64.7736 185.985 66.4481 188.105 66.3548C190.178 66.2569 191.832 64.4844 191.74 62.3388C191.689 60.2399 189.984 58.6074 187.911 58.612C185.792 58.7053 184.133 60.4824 184.137 62.628ZM188.123 83.2863C186.003 83.3796 184.252 81.7051 184.156 79.5595C184.156 77.4139 185.81 75.6415 187.929 75.5435C190.003 75.5389 191.712 77.1714 191.758 79.2657C191.855 81.4159 190.196 83.1884 188.123 83.2863ZM165.154 62.791C165.246 64.9366 167.002 66.6158 169.121 66.5178C171.195 66.4245 172.849 64.6474 172.752 62.5018C172.706 60.4029 171.001 58.7704 168.923 58.775C166.804 58.8683 165.15 60.6454 165.154 62.791ZM169.139 83.3092C167.02 83.4072 165.269 81.728 165.172 79.5824C165.168 77.4368 166.827 75.6597 168.946 75.5664C171.019 75.5618 172.729 77.1943 172.775 79.2932C172.872 81.4388 171.217 83.2159 169.139 83.3092Z" fill="url(#paint0_linear_4305_39134)"/>
<path fill-rule="evenodd" clip-rule="evenodd" d="M208.584 12.9199L208.589 16.4181C221.444 17.4256 229.935 26.1852 229.949 39.6185L230 78.9388C230.018 93.5848 220.817 102.596 206.068 102.62L170.042 102.666C155.386 102.685 146.069 93.4589 146.051 78.7709L146 39.9124C145.982 26.3905 154.174 17.6542 167.029 16.4741L167.024 12.9759C167.02 10.9236 168.54 9.37966 170.567 9.37966C172.595 9.375 174.115 10.9142 174.12 12.9665L174.124 16.2316L201.493 16.1942L201.489 12.9292C201.484 10.8769 203.004 9.33768 205.032 9.33302C207.013 9.32835 208.58 10.8676 208.584 12.9199ZM153.1 41.3537L222.858 41.2605V39.6279C222.66 29.5996 217.629 24.3383 208.598 23.5547L208.603 27.1462C208.603 29.1519 207.041 30.7424 205.059 30.7424C203.032 30.7471 201.507 29.1612 201.507 27.1555L201.502 23.3774L174.134 23.4147L174.138 27.1882C174.138 29.1985 172.622 30.7844 170.595 30.7844C168.568 30.789 167.043 29.2078 167.043 27.1975L167.038 23.606C158.053 24.5062 153.082 29.7862 153.096 39.9031L153.1 41.3537ZM203.119 62.553V62.6043C203.165 64.7499 204.916 66.3777 207.04 66.3311C209.113 66.2798 210.767 64.5027 210.721 62.3571C210.625 60.3048 208.961 58.6303 206.893 58.6349C204.773 58.6816 203.114 60.4074 203.119 62.553ZM206.926 83.4959C204.806 83.4492 203.097 81.6814 203.092 79.5359C203.046 77.3903 204.746 75.6132 206.866 75.5619H206.912C209.077 75.5619 210.833 77.3296 210.833 79.5219C210.838 81.7141 209.087 83.4912 206.926 83.4959ZM184.137 62.628C184.23 64.7736 185.985 66.4481 188.105 66.3548C190.178 66.2569 191.832 64.4844 191.74 62.3388C191.689 60.2399 189.984 58.6074 187.911 58.612C185.792 58.7053 184.133 60.4824 184.137 62.628ZM188.123 83.2863C186.003 83.3796 184.252 81.7051 184.156 79.5595C184.156 77.4139 185.81 75.6415 187.929 75.5435C190.003 75.5389 191.712 77.1714 191.758 79.2657C191.855 81.4159 190.196 83.1884 188.123 83.2863ZM165.154 62.791C165.246 64.9366 167.002 66.6158 169.121 66.5178C171.195 66.4245 172.849 64.6474 172.752 62.5018C172.706 60.4029 171.001 58.7704 168.923 58.775C166.804 58.8683 165.15 60.6454 165.154 62.791ZM169.139 83.3092C167.02 83.4072 165.269 81.728 165.172 79.5824C165.168 77.4368 166.827 75.6597 168.946 75.5664C171.019 75.5618 172.729 77.1943 172.775 79.2932C172.872 81.4388 171.217 83.2159 169.139 83.3092Z" fill="url(#paint1_linear_4305_39134)"/>
</g>
<defs>
<filter id="filter0_dddddd_4305_39134" x="-79" y="9.33301" width="534" height="574.333" filterUnits="userSpaceOnUse" color-interpolation-filters="sRGB">
<feFlood flood-opacity="0" result="BackgroundImageFix"/>
<feColorMatrix in="SourceAlpha" type="matrix" values="0 0 0 0 0 0 0 0 0 0 0 0 0 0 0 0 0 0 127 0" result="hardAlpha"/>
<feOffset dy="7.08418"/>
<feGaussianBlur stdDeviation="3.11316"/>
<feColorMatrix type="matrix" values="0 0 0 0 0 0 0 0 0 0.00392157 0 0 0 0 0 0 0 0 0.0196802 0"/>
<feBlend mode="normal" in2="BackgroundImageFix" result="effect1_dropShadow_4305_39134"/>
<feColorMatrix in="SourceAlpha" type="matrix" values="0 0 0 0 0 0 0 0 0 0 0 0 0 0 0 0 0 0 127 0" result="hardAlpha"/>
<feOffset dy="17.0243"/>
<feGaussianBlur stdDeviation="7.48136"/>
<feColorMatrix type="matrix" values="0 0 0 0 0 0 0 0 0 0.00392157 0 0 0 0 0 0 0 0 0.0282725 0"/>
<feBlend mode="normal" in2="effect1_dropShadow_4305_39134" result="effect2_dropShadow_4305_39134"/>
<feColorMatrix in="SourceAlpha" type="matrix" values="0 0 0 0 0 0 0 0 0 0 0 0 0 0 0 0 0 0 127 0" result="hardAlpha"/>
<feOffset dy="32.0552"/>
<feGaussianBlur stdDeviation="14.0867"/>
<feColorMatrix type="matrix" values="0 0 0 0 0 0 0 0 0 0.00392157 0 0 0 0 0 0 0 0 0.035 0"/>
<feBlend mode="normal" in2="effect2_dropShadow_4305_39134" result="effect3_dropShadow_4305_39134"/>
<feColorMatrix in="SourceAlpha" type="matrix" values="0 0 0 0 0 0 0 0 0 0 0 0 0 0 0 0 0 0 127 0" result="hardAlpha"/>
<feOffset dy="57.181"/>
<feGaussianBlur stdDeviation="25.1283"/>
<feColorMatrix type="matrix" values="0 0 0 0 0 0 0 0 0 0.00392157 0 0 0 0 0 0 0 0 0.0417275 0"/>
<feBlend mode="normal" in2="effect3_dropShadow_4305_39134" result="effect4_dropShadow_4305_39134"/>
<feColorMatrix in="SourceAlpha" type="matrix" values="0 0 0 0 0 0 0 0 0 0 0 0 0 0 0 0 0 0 127 0" result="hardAlpha"/>
<feOffset dy="106.951"/>
<feGaussianBlur stdDeviation="46.9998"/>
<feColorMatrix type="matrix" values="0 0 0 0 0 0 0 0 0 0.00392157 0 0 0 0 0 0 0 0 0.0503198 0"/>
<feBlend mode="normal" in2="effect4_dropShadow_4305_39134" result="effect5_dropShadow_4305_39134"/>
<feColorMatrix in="SourceAlpha" type="matrix" values="0 0 0 0 0 0 0 0 0 0 0 0 0 0 0 0 0 0 127 0" result="hardAlpha"/>
<feOffset dy="256"/>
<feGaussianBlur stdDeviation="112.5"/>
<feColorMatrix type="matrix" values="0 0 0 0 0 0 0 0 0 0.00392157 0 0 0 0 0 0 0 0 0.07 0"/>
<feBlend mode="normal" in2="effect5_dropShadow_4305_39134" result="effect6_dropShadow_4305_39134"/>
<feBlend mode="normal" in="SourceGraphic" in2="effect6_dropShadow_4305_39134" result="shape"/>
</filter>
<linearGradient id="paint0_linear_4305_39134" x1="188" y1="9.33301" x2="188" y2="102.666" gradientUnits="userSpaceOnUse">
<stop stop-color="white"/>
<stop offset="0.47827" stop-color="#F2F2F2"/>
<stop offset="0.853177" stop-color="#D9DCDE"/>
<stop offset="1" stop-color="#D9DCDE"/>
</linearGradient>
<linearGradient id="paint1_linear_4305_39134" x1="188" y1="16.0738" x2="188" y2="105.537" gradientUnits="userSpaceOnUse">
<stop offset="0.203125" stop-color="white"/>
<stop offset="0.599167" stop-color="#ECF1EB"/>
<stop offset="0.865675" stop-color="#DAD6E1"/>
<stop offset="1" stop-color="#EFE6FF"/>
</linearGradient>
</defs>
</svg>
