<svg width="24" height="24" viewBox="0 0 24 24" fill="none" xmlns="http://www.w3.org/2000/svg">
<g id="Iconly/Light/Dismiss">
<path id="&#240;&#159;&#142;&#168; Color" d="M6.12941 7.26733L6.19331 7.19331C6.42762 6.95899 6.79429 6.93769 7.05267 7.12941L7.12669 7.19331L11.5 11.5663L15.8733 7.19331C16.1076 6.95899 16.4743 6.93769 16.7327 7.12941L16.8067 7.19331C17.041 7.42762 17.0623 7.79429 16.8706 8.05267L16.8067 8.12669L12.4337 12.5L16.8067 16.8733C17.041 17.1076 17.0623 17.4743 16.8706 17.7327L16.8067 17.8067C16.5724 18.041 16.2057 18.0623 15.9473 17.8706L15.8733 17.8067L11.5 13.4337L7.12669 17.8067C6.89238 18.041 6.52571 18.0623 6.26733 17.8706L6.19331 17.8067C5.95899 17.5724 5.93769 17.2057 6.12941 16.9473L6.19331 16.8733L10.5663 12.5L6.19331 8.12669C5.95899 7.89238 5.93769 7.52571 6.12941 7.26733L6.19331 7.19331L6.12941 7.26733Z" fill="white"/>
</g>
</svg>
