<svg width="24" height="24" viewBox="0 0 24 24" fill="none" xmlns="http://www.w3.org/2000/svg">
<path fill-rule="evenodd" clip-rule="evenodd" d="M3.32603 1.5C2.31792 1.5 1.5 2.33167 1.5 3.35547V4.44752C1.5 5.20588 1.78839 5.93518 2.30425 6.48373L7.95762 12.495L7.9601 12.4913C9.0515 13.6086 9.66556 15.119 9.66556 16.6939V22.0277C9.66556 22.3841 10.0385 22.6117 10.348 22.4435L13.5675 20.6892C14.0535 20.4238 14.3568 19.9081 14.3568 19.3481V16.68C14.3568 15.1139 14.9622 13.6098 16.0436 12.495L21.697 6.48373C22.2116 5.93518 22.5 5.20588 22.5 4.44752V3.35547C22.5 2.33167 21.6833 1.5 20.6752 1.5H3.32603Z" stroke="black" stroke-width="1.5" stroke-linecap="round" stroke-linejoin="round"/>
</svg>
