<svg width="25" height="24" viewBox="0 0 25 24" fill="none" xmlns="http://www.w3.org/2000/svg">
<path fill-rule="evenodd" clip-rule="evenodd" d="M3.25 6.5C3.25 5.37491 3.32228 5 12.25 5C21.1777 5 21.25 5.37491 21.25 6.5C21.25 7.62509 21.2785 8 12.25 8C3.22153 8 3.25 7.62509 3.25 6.5Z" stroke="#B6BBC6" stroke-width="1.4" stroke-linecap="round" stroke-linejoin="round"/>
<path fill-rule="evenodd" clip-rule="evenodd" d="M3.25 12.5C3.25 11.3749 3.32228 11 12.25 11C21.1777 11 21.25 11.3749 21.25 12.5C21.25 13.6251 21.2785 14 12.25 14C3.22153 14 3.25 13.6251 3.25 12.5Z" stroke="#B6BBC6" stroke-width="1.4" stroke-linecap="round" stroke-linejoin="round"/>
<path fill-rule="evenodd" clip-rule="evenodd" d="M3.25 18.5C3.25 17.3749 3.32228 17 12.25 17C21.1777 17 21.25 17.3749 21.25 18.5C21.25 19.6251 21.2785 20 12.25 20C3.22153 20 3.25 19.6251 3.25 18.5Z" stroke="#B6BBC6" stroke-width="1.4" stroke-linecap="round" stroke-linejoin="round"/>
</svg>
