<svg width="28" height="28" viewBox="0 0 28 28" fill="none" xmlns="http://www.w3.org/2000/svg">
<g id="Chat">
<path id="Chat_2" fill-rule="evenodd" clip-rule="evenodd" d="M0.416504 14.0204C0.416504 6.99649 6.02984 0.666992 13.7765 0.666992C21.3498 0.666992 27.0832 6.87631 27.0832 13.9803C27.0832 22.2193 20.3632 27.3337 13.7498 27.3337C11.5632 27.3337 9.1365 26.7461 7.18984 25.5977C6.50984 25.1838 5.9365 24.8766 5.20317 25.117L2.50984 25.9182C1.82984 26.1319 1.2165 25.5977 1.4165 24.8766L2.30984 21.8855C2.4565 21.4715 2.42984 21.0309 2.2165 20.6837C1.06984 18.5739 0.416504 16.2637 0.416504 14.0204ZM13.1665 8.66699C13.1665 8.25278 12.8307 7.91699 12.4165 7.91699C12.0023 7.91699 11.6665 8.25278 11.6665 8.66699V15.1297C11.6665 15.3938 11.8054 15.6384 12.0323 15.7738L17.0589 18.7724C17.4147 18.9846 17.8751 18.8683 18.0873 18.5126C18.2995 18.1568 18.1831 17.6964 17.8274 17.4842L13.1665 14.7038V8.66699Z" fill="black"/>
</g>
</svg>
