<svg width="81" height="94" viewBox="0 0 81 94" fill="none" xmlns="http://www.w3.org/2000/svg">
<g id="Notification">
<path id="Notification_2" fill-rule="evenodd" clip-rule="evenodd" d="M71.8858 32.0502C71.8858 37.9112 73.4349 41.3658 76.8438 45.3467C79.4272 48.2796 80.2528 52.0444 80.2528 56.1288C80.2528 60.2084 78.9124 64.0813 76.227 67.2257C72.7113 70.9951 67.7533 73.4016 62.6932 73.8199C55.3605 74.445 48.0232 74.9714 40.5884 74.9714C33.149 74.9714 25.8163 74.6565 18.4836 73.8199C13.4189 73.4016 8.46085 70.9951 4.94987 67.2257C2.26446 64.0813 0.919434 60.2084 0.919434 56.1288C0.919434 52.0444 1.74964 48.2796 4.32838 45.3467C7.844 41.3658 9.29106 37.9112 9.29106 32.0502V30.0621C9.29106 22.2129 11.2483 17.0804 15.2787 12.056C21.2711 4.72857 30.8764 0.333984 40.3797 0.333984H40.7971C50.5045 0.333984 60.4206 4.94007 66.3109 12.5824C70.1326 17.5034 71.8858 22.4197 71.8858 30.0621V32.0502ZM26.9299 84.6179C26.9299 82.2678 29.0866 81.1915 31.0809 80.7309C33.4139 80.2374 47.6294 80.2374 49.9623 80.7309C51.9567 81.1915 54.1133 82.2678 54.1133 84.6179C53.9974 86.8551 52.6848 88.8386 50.8714 90.0982C48.5199 91.9312 45.7603 93.0921 42.8754 93.5105C41.2799 93.7173 39.7123 93.722 38.1725 93.5105C35.283 93.0921 32.5234 91.9312 30.1765 90.0935C28.3584 88.8386 27.0459 86.8551 26.9299 84.6179Z" fill="url(#paint0_linear_12728_4414)"/>
</g>
<defs>
<linearGradient id="paint0_linear_12728_4414" x1="40.5861" y1="7.07472" x2="40.5861" y2="96.2599" gradientUnits="userSpaceOnUse">
<stop offset="0.122995" stop-color="white"/>
<stop offset="0.480047" stop-color="#ECF1EB"/>
<stop offset="0.827347" stop-color="#DAD6E1"/>
<stop offset="1" stop-color="#EFE6FF"/>
</linearGradient>
</defs>
</svg>
