<svg width="24" height="24" viewBox="0 0 24 24" fill="none" xmlns="http://www.w3.org/2000/svg">
<g id="Iconly/Light/Plus">
<path id="&#240;&#159;&#142;&#168; Color" d="M4.28054 12.0975L4.27338 12C4.27338 11.6686 4.51759 11.3943 4.83585 11.3472L4.93338 11.34L11.118 11.3398L11.1182 5.15521C11.1182 4.82384 11.3624 4.5495 11.6806 4.50236L11.7782 4.49521C12.1095 4.49521 12.3839 4.73941 12.431 5.05768L12.4382 5.15521L12.4384 11.3398L18.623 11.34C18.9543 11.34 19.2287 11.5842 19.2758 11.9025L19.283 12C19.283 12.3314 19.0388 12.6057 18.7205 12.6528L18.623 12.66L12.4384 12.6602L12.4382 18.8448C12.4382 19.1762 12.194 19.4505 11.8757 19.4976L11.7782 19.5048C11.4468 19.5048 11.1725 19.2606 11.1253 18.9423L11.1182 18.8448L11.118 12.6602L4.93338 12.66C4.60201 12.66 4.32768 12.4158 4.28054 12.0975L4.27338 12L4.28054 12.0975Z" fill="black"/>
</g>
</svg>
