<svg width="26" height="28" viewBox="0 0 26 28" fill="none" xmlns="http://www.w3.org/2000/svg">
<g id="Setting">
<path id="Path_33946" fill-rule="evenodd" clip-rule="evenodd" d="M24.4924 8.16474L23.6625 6.72461C22.9604 5.50605 21.4044 5.08568 20.1842 5.78487V5.78487C19.6034 6.12704 18.9103 6.22412 18.2578 6.0547C17.6053 5.88528 17.047 5.46327 16.7059 4.88175C16.4866 4.51212 16.3687 4.09111 16.3642 3.6613V3.6613C16.384 2.97221 16.124 2.30445 15.6435 1.81014C15.163 1.31583 14.5029 1.03707 13.8135 1.03735H12.1415C11.4661 1.03735 10.8186 1.30647 10.3422 1.78518C9.86574 2.26389 9.59973 2.91271 9.60298 3.58808V3.58808C9.58296 4.98249 8.4468 6.10233 7.05225 6.10219C6.62244 6.09773 6.20144 5.97984 5.83181 5.76047V5.76047C4.61158 5.06127 3.05565 5.48164 2.35355 6.70021L1.46262 8.16474C0.761376 9.38178 1.17603 10.9367 2.39016 11.643V11.643C3.17937 12.0986 3.66554 12.9407 3.66554 13.852C3.66554 14.7633 3.17937 15.6054 2.39016 16.061V16.061C1.17757 16.7625 0.762466 18.3137 1.46262 19.5271V19.5271L2.30473 20.9794C2.63369 21.573 3.18563 22.011 3.83842 22.1965C4.49121 22.382 5.19102 22.2998 5.78299 21.9679V21.9679C6.36494 21.6284 7.05841 21.5353 7.70928 21.7095C8.36015 21.8837 8.91448 22.3106 9.24905 22.8955C9.46843 23.2651 9.58631 23.6861 9.59077 24.1159V24.1159C9.59077 25.5246 10.7328 26.6666 12.1415 26.6666H13.8135C15.2175 26.6667 16.3575 25.5321 16.3642 24.1281V24.1281C16.361 23.4506 16.6286 22.7999 17.1077 22.3209C17.5868 21.8418 18.2375 21.5741 18.915 21.5774C19.3437 21.5889 19.763 21.7063 20.1354 21.9191V21.9191C21.3524 22.6204 22.9074 22.2057 23.6137 20.9916V20.9916L24.4924 19.5271C24.8325 18.9432 24.9259 18.2479 24.7518 17.5951C24.5777 16.9422 24.1505 16.3857 23.5648 16.0488V16.0488C22.9792 15.7119 22.552 15.1554 22.3779 14.5025C22.2038 13.8497 22.2972 13.1543 22.6373 12.5705C22.8585 12.1844 23.1787 11.8642 23.5648 11.643V11.643C24.7717 10.9371 25.1854 9.39124 24.4924 8.17694V8.17694V8.16474Z" stroke="black" stroke-width="1.5" stroke-linecap="round" stroke-linejoin="round"/>
<circle id="Ellipse_737" cx="12.9836" cy="13.852" r="3.51487" stroke="black" stroke-width="1.5" stroke-linecap="round" stroke-linejoin="round"/>
</g>
</svg>
