<svg width="28" height="28" viewBox="0 0 28 28" fill="none" xmlns="http://www.w3.org/2000/svg">
<g id="Chat">
<path id="Stroke 4" d="M8.69654 25.418C8.6851 25.4128 8.67353 25.4078 8.66184 25.403C8.64335 25.3956 8.62483 25.3881 8.60627 25.3807C7.93346 25.1096 7.21012 24.8181 6.487 24.8181L6.48255 24.8181C5.97681 24.8211 5.47385 24.9443 5.02935 25.08C4.80376 25.1488 4.57993 25.2253 4.36989 25.2975L4.32585 25.3126C4.12848 25.3804 3.94431 25.4438 3.76473 25.5002C3.36898 25.6244 3.06825 25.6905 2.83489 25.6906C2.62829 25.6908 2.52328 25.6408 2.44134 25.5591C2.35931 25.4771 2.30907 25.372 2.30907 25.1646C2.30907 24.9307 2.37501 24.6293 2.49894 24.2324C2.55418 24.0554 2.61598 23.8742 2.68217 23.6801L2.70088 23.6252C2.77273 23.4143 2.84872 23.1896 2.91702 22.963C3.05163 22.5162 3.17285 22.0108 3.17285 21.5021C3.17285 20.7687 2.8831 20.0476 2.60598 19.358L2.59753 19.337C2.59274 19.3251 2.58765 19.3133 2.58226 19.3016C0.425019 14.64 1.25911 8.94391 5.10379 5.10008L5.10394 5.09992C10.0128 0.189235 17.9891 0.189235 22.898 5.09865C27.8159 10.0172 27.8072 17.9864 22.898 22.8963C19.0533 26.7414 13.3592 27.5744 8.69654 25.418Z" stroke="black" stroke-width="1.5" stroke-linecap="round" stroke-linejoin="round"/>
<path id="Stroke 3" d="M17.6932 18.1281L12.6665 15.1294V8.66675" stroke="black" stroke-width="1.5" stroke-linecap="round" stroke-linejoin="round"/>
</g>
</svg>
