<svg width="25" height="24" viewBox="0 0 25 24" fill="none" xmlns="http://www.w3.org/2000/svg">
<path fill-rule="evenodd" clip-rule="evenodd" d="M3.75 6.5C3.75 3.87479 3.77811 3 7.25 3C10.7219 3 10.75 3.87479 10.75 6.5C10.75 9.12521 10.7611 10 7.25 10C3.73893 10 3.75 9.12521 3.75 6.5Z" stroke="#209F85" stroke-width="1.5" stroke-linecap="round" stroke-linejoin="round"/>
<path fill-rule="evenodd" clip-rule="evenodd" d="M14.75 6.5C14.75 3.87479 14.7781 3 18.25 3C21.7219 3 21.75 3.87479 21.75 6.5C21.75 9.12521 21.7611 10 18.25 10C14.7389 10 14.75 9.12521 14.75 6.5Z" stroke="#209F85" stroke-width="1.5" stroke-linecap="round" stroke-linejoin="round"/>
<path fill-rule="evenodd" clip-rule="evenodd" d="M3.75 17.5C3.75 14.8748 3.77811 14 7.25 14C10.7219 14 10.75 14.8748 10.75 17.5C10.75 20.1252 10.7611 21 7.25 21C3.73893 21 3.75 20.1252 3.75 17.5Z" stroke="#209F85" stroke-width="1.5" stroke-linecap="round" stroke-linejoin="round"/>
<path fill-rule="evenodd" clip-rule="evenodd" d="M14.75 17.5C14.75 14.8748 14.7781 14 18.25 14C21.7219 14 21.75 14.8748 21.75 17.5C21.75 20.1252 21.7611 21 18.25 21C14.7389 21 14.75 20.1252 14.75 17.5Z" stroke="#209F85" stroke-width="1.5" stroke-linecap="round" stroke-linejoin="round"/>
</svg>
