<svg width="26" height="28" viewBox="0 0 26 28" fill="none" xmlns="http://www.w3.org/2000/svg">
<g id="Setting">
<path id="Setting_2" fill-rule="evenodd" clip-rule="evenodd" d="M23.9528 16.107C24.4297 16.3603 24.7976 16.7603 25.0565 17.1603C25.5607 17.987 25.5198 19.0003 25.0293 19.8937L24.0754 21.4937C23.5713 22.347 22.6311 22.8803 21.6636 22.8803C21.1867 22.8803 20.6553 22.747 20.2192 22.4803C19.865 22.2537 19.4562 22.1737 19.0202 22.1737C17.6712 22.1737 16.5402 23.2803 16.4993 24.6003C16.4993 26.1337 15.2457 27.3337 13.6787 27.3337H11.8256C10.2449 27.3337 8.99135 26.1337 8.99135 24.6003C8.96409 23.2803 7.83313 22.1737 6.48414 22.1737C6.03448 22.1737 5.6257 22.2537 5.28505 22.4803C4.84901 22.747 4.30397 22.8803 3.84068 22.8803C2.8596 22.8803 1.9194 22.347 1.41523 21.4937L0.475034 19.8937C-0.0291314 19.027 -0.0563836 17.987 0.447782 17.1603C0.6658 16.7603 1.07458 16.3603 1.53787 16.107C1.9194 15.9203 2.16467 15.6137 2.39631 15.2537C3.07762 14.107 2.66884 12.6003 1.51062 11.9203C0.161634 11.1603 -0.274401 9.46699 0.502286 8.14699L1.41523 6.57366C2.20555 5.25366 3.89518 4.78699 5.25779 5.56033C6.44326 6.20033 7.98301 5.77366 8.67795 4.64033C8.89596 4.26699 9.0186 3.86699 8.99135 3.46699C8.96409 2.94699 9.11398 2.45366 9.37288 2.05366C9.87704 1.22699 10.79 0.693659 11.7847 0.666992H13.706C14.7143 0.666992 15.6273 1.22699 16.1314 2.05366C16.3767 2.45366 16.5402 2.94699 16.4993 3.46699C16.4721 3.86699 16.5947 4.26699 16.8127 4.64033C17.5077 5.77366 19.0474 6.20033 20.2465 5.56033C21.5955 4.78699 23.2987 5.25366 24.0754 6.57366L24.9884 8.14699C25.7787 9.46699 25.3427 11.1603 23.9801 11.9203C22.8218 12.6003 22.4131 14.107 23.108 15.2537C23.326 15.6137 23.5713 15.9203 23.9528 16.107ZM8.89596 14.0137C8.89596 16.107 10.6265 17.7737 12.7658 17.7737C14.9051 17.7737 16.5947 16.107 16.5947 14.0137C16.5947 11.9203 14.9051 10.2403 12.7658 10.2403C10.6265 10.2403 8.89596 11.9203 8.89596 14.0137Z" fill="black"/>
</g>
</svg>
