<svg width="28" height="30" viewBox="0 0 28 30" fill="none" xmlns="http://www.w3.org/2000/svg">
<g id="Home">
<path id="Home_2" d="M10.2098 26.6955V22.6066C10.2098 21.5665 11.0577 20.7214 12.1082 20.7144H15.9563C17.0118 20.7144 17.8675 21.5616 17.8675 22.6066V22.6066V26.7082C17.8673 27.5913 18.5792 28.313 19.4709 28.3337H22.0363C24.5937 28.3337 26.6668 26.2812 26.6668 23.7494V23.7494V12.1174C26.6532 11.1214 26.1808 10.1861 25.3841 9.5777L16.6105 2.58073C15.0734 1.36241 12.8884 1.36241 11.3514 2.58073L2.6162 9.5904C1.81651 10.1964 1.34335 11.1332 1.3335 12.1301V23.7494C1.3335 26.2812 3.40666 28.3337 5.96404 28.3337H8.52945C9.4433 28.3337 10.1841 27.6002 10.1841 26.6955V26.6955" stroke="black" stroke-width="1.5" stroke-linecap="round" stroke-linejoin="round"/>
</g>
</svg>
