<svg width="26" height="28" viewBox="0 0 26 28" fill="none" xmlns="http://www.w3.org/2000/svg">
<g id="Home">
<path id="Home_2" d="M9.17987 25.6979V21.6209C9.17987 20.5802 10.0297 19.7365 11.0781 19.7365H14.9103C15.4137 19.7365 15.8966 19.935 16.2525 20.2884C16.6085 20.6418 16.8085 21.1211 16.8085 21.6209V25.6979C16.8053 26.1305 16.9762 26.5466 17.2833 26.8537C17.5904 27.1607 18.0082 27.3334 18.4441 27.3334H21.0586C22.2797 27.3365 23.4518 26.8572 24.3164 26.0012C25.1809 25.1451 25.6668 23.9827 25.6668 22.7705V11.1559C25.6668 10.1767 25.2296 9.24787 24.473 8.61964L15.5789 1.56791C14.0317 0.331497 11.815 0.371418 10.314 1.66272L1.62285 8.61964C0.830484 9.22935 0.356899 10.1609 0.333496 11.1559V22.7587C0.333496 25.2852 2.39667 27.3334 4.94173 27.3334H7.49655C8.4018 27.3334 9.13749 26.6084 9.14405 25.7097L9.17987 25.6979Z" fill="black"/>
</g>
</svg>
