<svg width="24" height="28" viewBox="0 0 24 28" fill="none" xmlns="http://www.w3.org/2000/svg">
<g id="Voice">
<path id="Voice_2" fill-rule="evenodd" clip-rule="evenodd" d="M12.2329 18.2899H11.7666C8.56208 18.2899 5.96462 15.7237 5.96462 12.5605V6.39617C5.96462 3.23172 8.56208 0.666748 11.7666 0.666748H12.2329C15.4374 0.666748 18.0361 3.23172 18.0361 6.39617V12.5605C18.0361 15.7237 15.4374 18.2899 12.2329 18.2899ZM20.7499 12.3772C20.7499 11.6719 21.3286 11.1017 22.0415 11.1017C22.7545 11.1017 23.3332 11.6719 23.3332 12.3772C23.3332 18.1156 18.9339 22.8539 13.2921 23.4904V26.0579C13.2921 26.762 12.7135 27.3334 12.0005 27.3334C11.2862 27.3334 10.7089 26.762 10.7089 26.0579V23.4904C5.06577 22.8539 0.666504 18.1156 0.666504 12.3772C0.666504 11.6719 1.24515 11.1017 1.95813 11.1017C2.6711 11.1017 3.24975 11.6719 3.24975 12.3772C3.24975 17.1411 7.17498 21.0173 12.0005 21.0173C16.8247 21.0173 20.7499 17.1411 20.7499 12.3772Z" fill="white"/>
</g>
</svg>
