<svg width="20" height="24" viewBox="0 0 20 24" fill="none" xmlns="http://www.w3.org/2000/svg">
<g id="Notification">
<path id="Notification_2" fill-rule="evenodd" clip-rule="evenodd" d="M17.8251 8.2623C17.8251 9.72756 18.2124 10.5912 19.0646 11.5864C19.7104 12.3197 19.9168 13.2608 19.9168 14.2819C19.9168 15.3019 19.5817 16.2701 18.9104 17.0562C18.0315 17.9985 16.792 18.6002 15.5269 18.7047C13.6938 18.861 11.8594 18.9926 10.0007 18.9926C8.1409 18.9926 6.30772 18.9139 4.47454 18.7047C3.20836 18.6002 1.96885 17.9985 1.09111 17.0562C0.419753 16.2701 0.0834961 15.3019 0.0834961 14.2819C0.0834961 13.2608 0.291048 12.3197 0.935732 11.5864C1.81464 10.5912 2.1764 9.72756 2.1764 8.2623V7.76527C2.1764 5.80298 2.66571 4.51986 3.67332 3.26376C5.1714 1.4319 7.57274 0.333252 9.94857 0.333252H10.0529C12.4798 0.333252 14.9588 1.48477 16.4314 3.39536C17.3868 4.62561 17.8251 5.85468 17.8251 7.76527V8.2623ZM6.58613 21.4042C6.58613 20.8167 7.1253 20.5476 7.62388 20.4325C8.20711 20.3091 11.761 20.3091 12.3442 20.4325C12.8428 20.5476 13.382 20.8167 13.382 21.4042C13.353 21.9636 13.0249 22.4594 12.5715 22.7743C11.9836 23.2326 11.2937 23.5228 10.5725 23.6274C10.1736 23.6791 9.78172 23.6803 9.39677 23.6274C8.67439 23.5228 7.98449 23.2326 7.39778 22.7731C6.94325 22.4594 6.61511 21.9636 6.58613 21.4042Z" fill="black"/>
</g>
</svg>
