<svg width="375" height="560" viewBox="0 0 375 560" fill="none" xmlns="http://www.w3.org/2000/svg">
<path d="M264.445 39.2137C298.676 65.9977 331.788 99.7113 332.963 144.065C334.167 189.513 305.975 229.857 270.196 256.314C236.742 281.051 194.387 286.301 154.464 276.055C115.588 266.077 83.4355 239.901 64.3776 203.492C44.0178 164.596 33.252 118.463 50.8829 78.1691C68.9374 36.9067 109.096 10.5379 152.25 2.66627C192.877 -4.74446 231.555 13.4782 264.445 39.2137Z" fill="url(#paint0_linear_11520_80517)"/>
<g filter="url(#filter0_dddddd_11520_80517)">
<path fill-rule="evenodd" clip-rule="evenodd" d="M141.333 134.794C141.333 112.448 159.255 94.334 181.362 94.334C191.979 94.334 202.16 98.5967 209.667 106.184C217.174 113.772 221.391 124.063 221.391 134.794C221.391 157.139 203.47 175.253 181.362 175.253C159.255 175.253 141.333 157.139 141.333 134.794ZM220.729 167.387L232.651 177.011H232.858C235.27 179.448 235.27 183.401 232.858 185.839C230.446 188.277 226.535 188.277 224.123 185.839L214.23 174.5C213.295 173.558 212.769 172.278 212.769 170.944C212.769 169.609 213.295 168.329 214.23 167.387C216.034 165.596 218.925 165.596 220.729 167.387Z" fill="url(#paint1_linear_11520_80517)"/>
<path fill-rule="evenodd" clip-rule="evenodd" d="M141.333 134.794C141.333 112.448 159.255 94.334 181.362 94.334C191.979 94.334 202.16 98.5967 209.667 106.184C217.174 113.772 221.391 124.063 221.391 134.794C221.391 157.139 203.47 175.253 181.362 175.253C159.255 175.253 141.333 157.139 141.333 134.794ZM220.729 167.387L232.651 177.011H232.858C235.27 179.448 235.27 183.401 232.858 185.839C230.446 188.277 226.535 188.277 224.123 185.839L214.23 174.5C213.295 173.558 212.769 172.278 212.769 170.944C212.769 169.609 213.295 168.329 214.23 167.387C216.034 165.596 218.925 165.596 220.729 167.387Z" fill="url(#paint2_linear_11520_80517)"/>
</g>
<defs>
<filter id="filter0_dddddd_11520_80517" x="-83.6667" y="94.334" width="543.333" height="574.334" filterUnits="userSpaceOnUse" color-interpolation-filters="sRGB">
<feFlood flood-opacity="0" result="BackgroundImageFix"/>
<feColorMatrix in="SourceAlpha" type="matrix" values="0 0 0 0 0 0 0 0 0 0 0 0 0 0 0 0 0 0 127 0" result="hardAlpha"/>
<feOffset dy="7.08418"/>
<feGaussianBlur stdDeviation="3.11316"/>
<feColorMatrix type="matrix" values="0 0 0 0 0 0 0 0 0 0.00392157 0 0 0 0 0 0 0 0 0.0196802 0"/>
<feBlend mode="normal" in2="BackgroundImageFix" result="effect1_dropShadow_11520_80517"/>
<feColorMatrix in="SourceAlpha" type="matrix" values="0 0 0 0 0 0 0 0 0 0 0 0 0 0 0 0 0 0 127 0" result="hardAlpha"/>
<feOffset dy="17.0243"/>
<feGaussianBlur stdDeviation="7.48136"/>
<feColorMatrix type="matrix" values="0 0 0 0 0 0 0 0 0 0.00392157 0 0 0 0 0 0 0 0 0.0282725 0"/>
<feBlend mode="normal" in2="effect1_dropShadow_11520_80517" result="effect2_dropShadow_11520_80517"/>
<feColorMatrix in="SourceAlpha" type="matrix" values="0 0 0 0 0 0 0 0 0 0 0 0 0 0 0 0 0 0 127 0" result="hardAlpha"/>
<feOffset dy="32.0552"/>
<feGaussianBlur stdDeviation="14.0867"/>
<feColorMatrix type="matrix" values="0 0 0 0 0 0 0 0 0 0.00392157 0 0 0 0 0 0 0 0 0.035 0"/>
<feBlend mode="normal" in2="effect2_dropShadow_11520_80517" result="effect3_dropShadow_11520_80517"/>
<feColorMatrix in="SourceAlpha" type="matrix" values="0 0 0 0 0 0 0 0 0 0 0 0 0 0 0 0 0 0 127 0" result="hardAlpha"/>
<feOffset dy="57.181"/>
<feGaussianBlur stdDeviation="25.1283"/>
<feColorMatrix type="matrix" values="0 0 0 0 0 0 0 0 0 0.00392157 0 0 0 0 0 0 0 0 0.0417275 0"/>
<feBlend mode="normal" in2="effect3_dropShadow_11520_80517" result="effect4_dropShadow_11520_80517"/>
<feColorMatrix in="SourceAlpha" type="matrix" values="0 0 0 0 0 0 0 0 0 0 0 0 0 0 0 0 0 0 127 0" result="hardAlpha"/>
<feOffset dy="106.951"/>
<feGaussianBlur stdDeviation="46.9998"/>
<feColorMatrix type="matrix" values="0 0 0 0 0 0 0 0 0 0.00392157 0 0 0 0 0 0 0 0 0.0503198 0"/>
<feBlend mode="normal" in2="effect4_dropShadow_11520_80517" result="effect5_dropShadow_11520_80517"/>
<feColorMatrix in="SourceAlpha" type="matrix" values="0 0 0 0 0 0 0 0 0 0 0 0 0 0 0 0 0 0 127 0" result="hardAlpha"/>
<feOffset dy="256"/>
<feGaussianBlur stdDeviation="112.5"/>
<feColorMatrix type="matrix" values="0 0 0 0 0 0 0 0 0 0.00392157 0 0 0 0 0 0 0 0 0.07 0"/>
<feBlend mode="normal" in2="effect5_dropShadow_11520_80517" result="effect6_dropShadow_11520_80517"/>
<feBlend mode="normal" in="SourceGraphic" in2="effect6_dropShadow_11520_80517" result="shape"/>
</filter>
<linearGradient id="paint0_linear_11520_80517" x1="66.1643" y1="30.1667" x2="284.576" y2="278.555" gradientUnits="userSpaceOnUse">
<stop stop-color="#63BCAA"/>
<stop offset="1" stop-color="#BF9FF2"/>
</linearGradient>
<linearGradient id="paint1_linear_11520_80517" x1="188" y1="94.334" x2="188" y2="187.667" gradientUnits="userSpaceOnUse">
<stop stop-color="white"/>
<stop offset="0.47827" stop-color="#F2F2F2"/>
<stop offset="0.853177" stop-color="#D9DCDE"/>
<stop offset="1" stop-color="#D9DCDE"/>
</linearGradient>
<linearGradient id="paint2_linear_11520_80517" x1="182" y1="92" x2="181" y2="178" gradientUnits="userSpaceOnUse">
<stop offset="0.203125" stop-color="white"/>
<stop offset="0.573303" stop-color="#ECF1EB"/>
<stop offset="0.839221" stop-color="#DAD6E1"/>
<stop offset="1" stop-color="#EFE6FF"/>
</linearGradient>
</defs>
</svg>
