<svg width="117" height="116" viewBox="0 0 117 116" fill="none" xmlns="http://www.w3.org/2000/svg">
<g id="Frame 20752">
<g id="image 50 (Traced)">
<path fill-rule="evenodd" clip-rule="evenodd" d="M71.0326 8.90321C70.7418 9.65435 70.5038 11.589 70.5038 13.2031C70.5038 17.5283 68.9639 17.7117 68.1212 13.4869C67.7193 11.4728 66.9225 9.67095 66.3495 9.48142C65.7775 9.29276 64.1397 10.7391 62.7091 12.6956L60.1089 16.2531L56.3116 13.1087C52.8784 10.2675 52.4526 10.1199 51.8753 11.5741C51.5236 12.4589 51.208 14.2407 51.1737 15.5334C51.1075 18.0541 49.825 19.4559 48.9172 18.0008C47.7113 16.0679 46.7382 17.3195 46.175 21.5242C45.6012 25.8135 45.5165 25.9192 43.104 25.3943C40.6924 24.8694 40.6448 24.9296 41.3984 27.5351C42.0736 29.8654 41.9528 30.2147 40.4729 30.2147C37.0361 30.2147 39.2442 37.1287 43.8197 40.6958L46.2596 42.5972L43.5747 47.5417C41.5183 51.3306 39.1421 53.4373 35.3755 56.1781C32.2295 58.4672 29.7645 58.6178 26.5161 60.7618C18.2082 66.2451 13.1278 69.5746 9.89023 79.9998C8.26396 85.2369 7.99776 100.158 9.44686 104.892L10.1252 108L21.584 107.949H32.4148L28.9154 101.064C22.3283 87.9715 23.4407 76.1541 31.7757 70.6883C34.7964 68.7082 36.4606 68.2479 40.4482 68.2916C50.1115 68.3973 59.3138 74.5863 60.4711 81.7589C61.2195 86.3941 67.2098 91.4277 68.3804 88.4039C68.8678 87.1462 70.3187 87.113 74.3874 88.2659C76.3918 88.8336 77.1966 88.6554 78.0913 87.4431C78.8863 86.3644 79.9661 86.0325 81.6444 86.3505C84.6801 86.9261 86.3698 86.3033 86.3698 84.6106C86.3698 83.5616 87.1279 83.4035 90.116 83.8298C92.1768 84.1232 94.3813 84.0324 95.015 83.6271C96.391 82.7485 95.6215 78.8268 93.7757 77.3088C92.242 76.0476 92.1565 73.8763 93.6417 73.9138C94.2482 73.9287 95.5139 74.5182 96.4544 75.2239C98.4306 76.7044 102.748 76.9306 103.58 75.5969C103.892 75.0973 103.376 73.1417 102.432 71.2516L100.715 67.8156L102.937 66.3727L105.159 64.9307L103.208 63.4729L101.258 62.0152L103.123 60.3426C104.188 59.387 104.811 57.9992 104.576 57.1074C104.3 56.0602 104.997 55.0592 106.692 54.0662C109.684 52.3149 108.993 50.9192 104.389 49.4134C102.743 48.8754 101.433 48.1671 101.48 47.8404C101.525 47.5137 101.021 44.4292 100.914 44.189C100.217 42.6178 98.1918 41.6085 98.911 41.1683C99.4681 40.8268 101.948 38.348 101.289 37.5611C100.617 36.7575 100.581 36.3287 101.189 36.3287C101.702 36.3287 103.19 35.926 104.499 35.4334C106.762 34.5801 106.804 34.4587 105.374 32.8926C104.547 31.9878 102.737 30.7824 101.35 30.213C99.7537 29.5579 99.0036 28.7255 99.3059 27.9447C99.8119 26.6389 94.8899 24.1008 91.8506 24.1008C90.4042 24.1008 90.2667 23.5095 90.6131 18.7694L91.0018 13.4389L88.9066 14.515C87.7537 15.1071 86.0587 16.2286 85.1393 17.0068C84.056 17.9248 83.3473 18.0838 83.1252 17.4584C82.9366 16.9282 81.8048 16.6793 80.6096 16.9055C78.9842 17.213 78.4368 16.9404 78.4368 15.8216C78.4368 13.9411 75.3085 9.52509 73.1746 8.39313C71.9634 7.75117 71.4293 7.87781 71.0326 8.90321ZM76.3627 14.742C77.119 16.191 77.4672 18.2165 77.1649 19.4105C76.7197 21.1652 76.3504 21.3704 74.9604 20.6333C72.9128 19.5476 71.0485 14.3001 71.8365 11.8405C72.3116 10.3575 72.6492 10.2264 73.7211 11.1086C74.4394 11.699 75.6285 13.3341 76.3627 14.742ZM66.9366 15.8032C66.9233 17.3964 63.3182 22.3539 62.1723 22.3539C60.859 22.3539 61.9044 16.205 63.5747 14.1009C65.5924 11.5584 66.9656 12.2545 66.9366 15.8032ZM57.2653 17.5457C57.6258 18.5039 57.5174 20.4359 57.0238 21.8395L56.1256 24.3916L54.5002 22.4028C53.454 21.1215 52.8748 19 52.8748 16.4443V12.4755L54.7417 14.1394C55.7686 15.0547 56.9039 16.5876 57.2653 17.5457ZM88.9621 20.8263C87.3879 26.4773 81.7907 28.3788 83.2089 22.7802C83.8982 20.0568 88.1195 15.8775 89.1499 16.8985C89.5404 17.2854 89.4566 19.0533 88.9621 20.8263ZM71.0679 21.0403C70.7647 21.8238 70.1591 22.2456 69.7228 21.9783C69.2865 21.7111 68.6924 22.4255 68.4042 23.5654C67.6928 26.3734 64.3284 27.2923 64.3469 24.6737C64.3636 22.3644 65.03 21.367 67.8233 19.4725C70.2138 17.8523 71.9731 18.7021 71.0679 21.0403ZM80.8211 22.0124C79.6356 25.8397 76.0921 28.5867 74.837 26.652C73.6805 24.8694 74.3002 22.7522 75.9009 23.0142C76.6527 23.1374 77.7202 22.2535 78.2737 21.049C78.8273 19.8455 79.8471 18.8602 80.539 18.8602C81.5774 18.8602 81.6267 19.4122 80.8211 22.0124ZM50.8916 22.6325C52.7417 25.3253 53.6311 30.2147 52.2702 30.2147C51.9379 30.2147 50.7479 29.3605 49.6258 28.3159C48.1829 26.9726 47.5862 25.4388 47.5862 23.0754C47.5862 18.9834 48.3178 18.8856 50.8916 22.6325ZM61.625 25.5288C63.5218 27.9176 64.0824 32.3459 62.6025 33.2516C60.8784 34.3085 58.1635 30.3143 58.1635 26.721C58.1635 22.6483 59.0864 22.3303 61.625 25.5288ZM72.6087 26.6127C74.5937 28.7858 75.4663 34.139 73.9837 35.0465C72.1873 36.147 69.6223 32.221 69.6223 28.3709C69.6223 24.6047 70.3716 24.1637 72.6087 26.6127ZM95.4011 26.8363C97.2063 27.7927 97.2125 27.8626 95.6153 29.0199C93.4584 30.5824 87.7519 30.5545 86.4289 28.9753C84.3028 26.4363 91.4399 24.7349 95.4011 26.8363ZM48.1811 29.1151C50.4482 30.5519 52.5117 35.4579 50.8458 35.4509C49.2547 35.4448 43.1789 29.6217 43.1789 28.1028C43.1789 26.659 44.8316 26.9935 48.1811 29.1151ZM67.8594 30.0968C67.8594 30.9929 68.6527 32.7249 69.6223 33.9469C72.785 37.9305 71.2874 40.7133 67.7087 37.5034C65.9661 35.9409 65.3614 28.4679 66.978 28.4679C67.4628 28.4679 67.8594 29.2007 67.8594 30.0968ZM84.8132 29.9632C86.4262 31.4096 86.3698 31.4908 83.1199 32.4192C78.9665 33.6062 76.6739 33.1223 76.6739 31.0593C76.6739 28.2565 82.0966 27.5263 84.8132 29.9632ZM102.791 33.0184C104.117 35.1443 97.5748 36.3173 94.2447 34.5513C91.8824 33.2979 92.1133 32.2498 94.9639 31.2943C97.4972 30.4453 101.773 31.3869 102.791 33.0184ZM45.6505 34.1346C49.082 36.996 49.8964 39.8276 47.2829 39.8093C44.9498 39.7927 43.9458 39.1324 42.026 36.3523C38.8907 31.8122 41.1825 30.4095 45.6505 34.1346ZM59.6091 34.746C60.6457 35.2413 61.9264 36.5863 62.4544 37.7349C63.3535 39.6896 63.2424 39.8224 60.7021 39.8224C58.8043 39.8224 57.2213 39.0075 55.4319 37.1095C54.026 35.6177 52.8748 34.0386 52.8748 33.5992C52.8748 32.7083 56.7144 33.3625 59.6091 34.746ZM88.7365 34.6858C90.101 35.2238 90.8211 35.7653 90.3363 35.8902C89.8515 36.0143 87.7986 36.6108 85.7739 37.2143C83.7502 37.8179 81.4152 38.0546 80.5858 37.7393C79.1746 37.2021 79.179 37.0554 80.6572 35.4369C82.435 33.4901 85.0776 33.2446 88.7365 34.6858ZM77.7519 42.0627C77.1737 43.0872 76.6219 42.8016 75.0115 40.6443C73.0732 38.0458 73.0573 37.8956 74.614 36.7453C76.0675 35.671 76.3478 35.816 77.3553 38.1646C78.0022 39.673 78.1697 41.3229 77.7519 42.0627ZM97.7731 37.6799C101.298 38.6922 97.9185 40.3482 93.1032 39.9691L89.0362 39.6486L91.008 38.0257C92.093 37.1331 93.5756 36.5514 94.3028 36.7331C95.03 36.9148 96.5919 37.341 97.7731 37.6799ZM55.6787 39.9027C58.4588 41.3081 60.1688 41.6007 63.0802 41.1683C66.294 40.6906 67.0088 40.8679 67.8039 42.3396C70.0789 46.5521 67.327 47.6413 62.4641 44.4524C58.2314 41.6766 56.9418 42.6287 57.7907 47.9015L58.3187 51.1769H53.4795H48.6404L49.8762 47.1076C50.5558 44.8699 51.112 41.9221 51.112 40.5569C51.112 37.5899 51.1049 37.5908 55.6787 39.9027ZM87.4716 40.2372C86.6113 44.6952 80.1997 49.0973 80.1997 45.2297C80.1997 43.3327 81.6382 41.4557 84.5831 39.5132C87.5122 37.5812 87.9617 37.6938 87.4716 40.2372ZM74.0472 42.0269C75.3244 43.5519 75.2028 43.7493 72.487 44.5764C70.9119 45.0559 70.5038 44.8384 70.5038 43.5204C70.5038 40.5674 72.2191 39.8442 74.0472 42.0269ZM97.164 42.5579C98.9692 43.5143 98.9754 43.5842 97.3782 44.7415C95.4584 46.1329 90.0481 46.3032 88.1327 45.0332C86.9886 44.2742 87.0406 43.9825 88.5214 42.8628C90.5567 41.3238 94.5708 41.1823 97.164 42.5579ZM62.7744 46.5914C64.4597 48.4893 65.2847 54.6706 63.8524 54.6706C62.0913 54.6706 59.8691 51.5035 59.3323 48.2282C58.747 44.6498 60.3654 43.8803 62.7744 46.5914ZM75.7924 46.6464C75.7924 48.0028 70.9304 51.9289 68.5205 52.5193C66.4994 53.0145 66.0965 52.8303 66.0965 51.4066C66.0965 49.6632 68.1362 47.4185 70.5038 46.5556C72.5655 45.8044 75.7924 45.8595 75.7924 46.6464ZM99.1904 47.6194C98.9128 48.0649 97.2795 48.8894 95.5607 49.451C93.0873 50.2598 91.8506 50.2275 89.6232 49.2964L86.8105 48.1199L91.6585 47.6072C99.5342 46.7739 99.7176 46.7748 99.1904 47.6194ZM82.844 48.4893C82.844 48.933 81.8171 50.5052 80.562 51.983C77.9273 55.0854 74.0296 55.7108 74.0296 53.0303C74.0296 51.0537 75.7034 49.5637 79.0415 48.5714C82.42 47.5661 82.844 47.5574 82.844 48.4893ZM103.778 50.8537C108.409 52.0835 104.316 54.7806 98.911 54.0627C95.6558 53.6294 95.3421 53.3901 96.1257 51.9394C97.0274 50.2694 99.9934 49.8493 103.778 50.8537ZM92.9375 52.8538C93.8189 54.2679 88.919 57.2908 85.7457 57.2908C83.35 57.2908 82.7762 56.9747 83.008 55.7842C83.5465 53.0093 91.5589 50.6441 92.9375 52.8538ZM71.4222 56.3493C70.0304 58.9267 66.0948 61.6579 63.7739 61.6579C61.4178 61.6579 61.3041 61.3828 62.6404 58.9093C63.6382 57.062 68.0745 54.7631 70.755 54.7046C72.0366 54.6767 72.16 54.9824 71.4222 56.3493ZM56.1803 56.0942C58.8934 56.8148 58.9092 61.0413 56.2041 62.9183C53.6972 64.659 50.3072 64.6442 45.8409 62.8729C41.8955 61.3086 41.4416 59.8858 44.0604 57.2908C45.8594 55.5082 51.773 54.9239 56.1803 56.0942ZM101.413 56.448C103.787 57.7075 103.544 58.6507 100.525 59.8901C98.5197 60.7129 97.2213 60.7216 94.7956 59.9277C91.0309 58.697 90.8273 57.7371 94.0825 56.5589C97.3165 55.3885 99.357 55.3579 101.413 56.448ZM77.5553 59.1049C77.5553 60.9557 72.4033 65.1516 70.1309 65.1516C67.3173 65.1516 67.1983 63.4397 69.8427 61.0238C72.5355 58.5643 77.5553 57.3153 77.5553 59.1049ZM86.4888 60.3819C82.7629 61.9846 82.3583 61.9802 83.7255 60.3478C84.3293 59.6272 85.8647 59.0534 87.1384 59.0717C89.357 59.1049 89.3297 59.16 86.4888 60.3819ZM94.4342 61.7278C96.1283 62.6266 96.1398 62.7488 94.6801 64.3481C92.9287 66.2661 91.3147 66.4242 87.3826 65.066C83.9679 63.886 83.8665 62.9454 87.0309 61.7994C90.2922 60.6194 92.3072 60.5994 94.4342 61.7278ZM82.0454 64.3219C84.2473 65.4896 83.5924 66.5185 79.8736 67.7343C77.7528 68.4278 76.2261 68.4331 74.4227 67.7544L71.9185 66.8103L74.5161 65.1132C77.446 63.2004 79.5183 62.9821 82.0454 64.3219ZM101.263 64.2031C102.212 64.7996 101.87 65.294 99.7634 66.3736C98.2632 67.143 96.1997 67.7719 95.179 67.7719C93.4584 67.7719 93.5042 67.6138 95.796 65.6163C98.4923 63.2659 99.3958 63.0318 101.263 64.2031ZM60.8079 68.2086C60.8079 69.7878 60.3345 70.3922 59.097 70.3922C56.6254 70.3922 55.8621 68.5754 57.7563 67.2024C60.1001 65.5045 60.8079 65.7377 60.8079 68.2086ZM90.6642 68.151C92.0093 68.8401 93.6241 70.0192 94.2543 70.7712C95.2654 71.9783 94.9331 72.139 91.4231 72.139C86.6986 72.139 82.2949 69.3379 84.6069 67.8033C86.4156 66.6024 87.796 66.681 90.6642 68.151ZM100.409 70.9468C102.68 73.8081 102.714 74.7593 100.545 74.7593C97.4769 74.7593 95.9221 73.7994 96.9674 72.5513C97.6365 71.753 97.6382 71.2525 96.9754 70.8463C95.9617 70.2253 96.5655 68.6453 97.8163 68.6453C98.2376 68.6453 99.4046 69.6812 100.409 70.9468ZM70.0278 70.8708C71.61 71.615 73.3473 73.1871 73.8885 74.3645C74.8096 76.3672 74.7092 76.5061 72.3389 76.5061C70.5417 76.5061 69.0097 75.6082 67.0697 73.4186C65.565 71.7206 64.3337 70.1485 64.3337 69.9249C64.3337 69.082 67.2574 69.5677 70.0278 70.8708ZM81.6858 71.4176C84.2526 73.8081 84.3019 75.6327 81.7986 75.6327C79.6417 75.6327 75.7924 72.4569 75.7924 70.6769C75.7924 68.8619 79.4319 69.3205 81.6858 71.4176ZM89.9132 76.0781C94.0684 78.2076 95.7951 82.6201 92.4721 82.6201C90.3249 82.6201 85.4884 78.1307 85.4884 76.1367C85.4884 74.4117 86.6307 74.3968 89.9132 76.0781ZM83.045 79.4373C85.0406 81.8917 85.1561 85.636 83.2125 84.8971C82.4456 84.6054 81.4646 84.3669 81.0318 84.3669C80.0375 84.3669 77.5553 79.6784 77.5553 77.8005C77.5553 75.8886 80.9912 76.9131 83.045 79.4373ZM66.1062 80.2182C68.8555 84.6866 68.3213 88.6345 65.1922 86.975C63.58 86.1199 61.6893 81.813 61.6893 78.9963C61.6893 76.4249 64.1997 77.1193 66.1062 80.2182ZM74.3918 80.9405C75.647 82.4183 76.6739 84.3835 76.6739 85.3076C76.6739 89.169 70.9983 85.7522 69.6717 81.0916C68.9701 78.6268 69.0776 78.253 70.487 78.253C71.3799 78.253 73.1367 79.4627 74.3918 80.9405Z" fill="black"/>
</g>
</g>
</svg>
