<svg width="48" height="48" viewBox="0 0 48 48" fill="none" xmlns="http://www.w3.org/2000/svg">
<g id="logo 1">
<rect width="48" height="48" rx="24" fill="#B6BBC6"/>
<g id="Group 6872">
<path id="Vector" fill-rule="evenodd" clip-rule="evenodd" d="M10.56 15C11.4146 15 12.1767 15.5376 12.4634 16.3427L18.3873 32.9776C18.8558 34.2932 17.8803 35.676 16.4839 35.676H14.9462C14.0915 35.676 13.3294 35.1383 13.0428 34.3333L7.1188 17.6983C6.65031 16.3828 7.62575 15 9.02223 15H10.56Z" fill="white"/>
<path id="Vector_2" fill-rule="evenodd" clip-rule="evenodd" d="M36.8632 15C36.0086 15 35.2464 15.5376 34.9597 16.3427L29.0358 32.9776C28.5673 34.2932 29.5428 35.676 30.9393 35.676H32.477C33.3316 35.676 34.0938 35.1383 34.3805 34.3333L40.3043 17.6983C40.7728 16.3828 39.7974 15 38.4009 15H36.8632Z" fill="white"/>
<path id="Vector_3" d="M23.7113 15.9818C25.0204 17.2907 25.0204 19.413 23.7113 20.7221C22.4023 22.0311 20.28 22.0311 18.971 20.7221C17.662 19.413 17.662 17.2907 18.971 15.9818C20.28 14.6727 22.4023 14.6727 23.7113 15.9818Z" fill="white"/>
<path id="Vector_4" d="M28.4521 15.9818C29.7611 17.2907 29.7611 19.413 28.4521 20.7221C27.1431 22.0311 25.0208 22.0311 23.7118 20.7221C22.4027 19.413 22.4027 17.2907 23.7118 15.9818C25.0208 14.6727 27.1431 14.6727 28.4521 15.9818Z" fill="white"/>
<path id="Vector_5" d="M18.9712 20.7217L23.7116 15.9814L28.4519 20.7217L25.1037 24.07C24.3348 24.8389 23.0883 24.8389 22.3195 24.07L18.9712 20.7217Z" fill="white"/>
</g>
</g>
</svg>
